<svg width="92" height="66" viewBox="0 0 92 66" fill="none" xmlns="http://www.w3.org/2000/svg">
<circle cx="47" cy="43" r="21.5" stroke="white" stroke-width="3"/>
<path d="M15.7901 56.5126C15.9721 57.0759 15.8908 57.5528 15.5462 57.9433C15.1992 58.3262 14.5314 58.6793 13.5429 59.0026L12.3226 59.4019C11.7447 59.5909 11.2332 59.7119 10.7879 59.765C10.3427 59.8181 9.9703 59.7715 9.67086 59.6254C9.36135 59.4741 9.13894 59.1892 9.00364 58.7705C8.92 58.5117 8.90825 58.2672 8.96841 58.0371C9.0185 57.8019 9.09487 57.5959 9.19752 57.4192L6.08388 58.4378L5.81451 57.6043L15.0528 54.5821L15.3221 55.4157L14.8545 55.5687C15.0408 55.6508 15.2255 55.7671 15.4087 55.9177C15.5818 56.063 15.7089 56.2613 15.7901 56.5126ZM15.0732 56.5577C15.0142 56.375 14.917 56.2174 14.7817 56.0849C14.644 55.9448 14.4934 55.8299 14.3299 55.7403L9.74497 57.2402C9.67542 57.3892 9.61828 57.5636 9.57356 57.7634C9.52123 57.9657 9.52828 58.1696 9.5947 58.3751C9.71278 58.7405 9.95498 58.9306 10.3213 58.9455C10.6775 58.9552 11.1636 58.8593 11.7795 58.6578L13.342 58.1467C13.783 58.0024 14.1482 57.8577 14.4376 57.7125C14.7245 57.5598 14.9231 57.3938 15.0333 57.2146C15.1411 57.0279 15.1544 56.8089 15.0732 56.5577Z" fill="white"/>
<path d="M14.0975 48.631L7.16517 48.8565L7.13664 47.969L8.08414 47.9382C7.70913 47.7262 7.44105 47.4788 7.27987 47.1959C7.11071 46.9133 7.02188 46.64 7.0134 46.3761C7.01263 46.3522 7.01186 46.3282 7.01109 46.3042C7.01032 46.2802 7.01341 46.2521 7.02038 46.2198L7.95589 46.1894C7.9337 46.2461 7.91989 46.3146 7.91447 46.3949C7.90105 46.4753 7.89549 46.5516 7.8978 46.6235C7.90654 46.8954 7.97848 47.1412 8.1136 47.3609C8.24848 47.5726 8.45854 47.7579 8.74379 47.9167L14.069 47.7434L14.0975 48.631Z" fill="white"/>
<path d="M14.9334 39.1851C14.8764 39.4099 14.7701 39.585 14.6145 39.7103C14.459 39.8356 14.2658 39.914 14.0349 39.9456C13.8061 39.9695 13.5405 39.9427 13.2383 39.8651L7.84502 38.4813L8.0632 37.6205L13.2705 38.9566C13.6192 39.0461 13.8761 39.0583 14.0411 38.9933C14.2081 38.9205 14.3191 38.7756 14.3742 38.5584C14.4253 38.3568 14.4144 38.1393 14.3415 37.9058C14.2706 37.6646 14.1609 37.43 14.0124 37.2019L8.52611 35.7942L8.74134 34.9451L15.4597 36.6689L15.2445 37.5181L14.5006 37.3272C14.6935 37.608 14.836 37.9088 14.9279 38.2297C15.0121 38.5487 15.0139 38.8671 14.9334 39.1851Z" fill="white"/>
<path d="M17.7408 31.1479L9.45062 26.0733L9.9039 25.3237L12.9027 27.1593C12.8112 26.8313 12.7731 26.5078 12.7883 26.1889C12.7968 25.8658 12.8879 25.5604 13.0618 25.2729C13.1818 25.0744 13.3324 24.9414 13.5134 24.874C13.6917 24.7956 13.8971 24.7806 14.1295 24.8291C14.3593 24.8665 14.6072 24.9667 14.8733 25.1296L19.6222 28.0366L19.1627 28.7964L14.5776 25.9897C14.2705 25.8018 14.0266 25.7181 13.8458 25.7388C13.6624 25.7484 13.5127 25.8491 13.3968 26.0408C13.2933 26.2119 13.2402 26.4233 13.2376 26.675C13.2324 26.9156 13.264 27.1648 13.3325 27.4225L18.194 30.3983L17.7408 31.1479Z" fill="white"/>
<path d="M24.3677 24.9049L23.9144 24.3926C24.2124 24.1257 24.4147 23.9016 24.5212 23.7203C24.6391 23.5395 24.6847 23.3859 24.6582 23.2593C24.6429 23.1334 24.5876 23.0165 24.4921 22.9087C24.4073 22.8128 24.2781 22.703 24.1046 22.5792C23.931 22.4555 23.7491 22.3284 23.559 22.198L18.4479 18.5761L19.1005 17.9916L23.9065 21.6129L20.8615 16.4145L21.523 15.8221L25.1934 22.5061C25.3419 22.7705 25.4119 23.0246 25.4033 23.2685C25.4061 23.5131 25.3326 23.756 25.183 23.9974C25.0447 24.2395 24.8295 24.4912 24.5375 24.7528L24.3677 24.9049Z" fill="white"/>
<path d="M37.9988 14.93L36.9791 8.0694L37.7861 7.94799L37.8901 8.6483C38.0796 8.34474 38.3027 8.10487 38.5596 7.92869C38.8153 7.7446 39.0895 7.63053 39.3823 7.58649C39.6196 7.55078 39.8465 7.58136 40.0631 7.67821C40.2876 7.77387 40.4687 7.98529 40.6063 8.31246C40.8001 7.98397 41.0282 7.72313 41.2907 7.52993C41.5531 7.33673 41.8426 7.21633 42.159 7.16872C42.3568 7.13897 42.5497 7.15847 42.7379 7.22725C42.934 7.29483 43.1044 7.43503 43.2493 7.64784C43.3941 7.86066 43.496 8.16489 43.5548 8.56055L44.3592 13.9731L43.5523 14.0945L42.7514 8.70569C42.6914 8.30212 42.5848 8.04715 42.4315 7.94078C42.2849 7.8253 42.1127 7.78244 41.915 7.81219C41.6934 7.84552 41.4813 7.94215 41.2787 8.10208C41.076 8.26202 40.8922 8.46765 40.7274 8.71897C40.7411 8.75735 40.7516 8.80027 40.7586 8.84775C40.7724 8.88613 40.7828 8.92905 40.7899 8.97653L41.5944 14.3891L40.7756 14.5123L39.9746 9.12346C39.9147 8.71989 39.808 8.46492 39.6547 8.35855C39.5081 8.24307 39.336 8.20021 39.1382 8.22996C38.9246 8.2621 38.7165 8.35813 38.5138 8.51807C38.3111 8.678 38.1267 8.87968 37.9607 9.12309L38.8057 14.8086L37.9988 14.93Z" fill="white"/>
<path d="M52.0569 14.7759C51.633 14.6926 51.2997 14.5415 51.057 14.3225C50.8237 14.0973 50.6784 13.7752 50.6212 13.3563C50.5719 12.939 50.6105 12.4044 50.7371 11.7526L51.0711 10.0327C51.2023 9.35733 51.3712 8.84427 51.5779 8.49355C51.786 8.13498 52.0427 7.90416 52.348 7.80111C52.6548 7.69021 53.0162 7.67565 53.4322 7.75744C53.911 7.85158 54.2562 8.02543 54.4678 8.279C54.6793 8.53257 54.7917 8.87672 54.8051 9.31146C54.8278 9.73989 54.7767 10.2761 54.6516 10.9201L54.5326 11.5326L51.7774 10.9909L51.5463 12.1807C51.4609 12.6205 51.4244 12.9761 51.4369 13.2476C51.4587 13.5128 51.5296 13.7143 51.6496 13.852C51.7774 13.9913 51.9551 14.0833 52.1827 14.1281C52.3554 14.162 52.5185 14.1615 52.672 14.1264C52.827 14.0835 52.9621 13.9755 53.0772 13.8025C53.2017 13.6231 53.2982 13.3568 53.3669 13.0034L53.4584 12.5322L54.2944 12.6965L54.2212 13.0735C54.1007 13.6939 53.8743 14.1671 53.5421 14.4931C53.2192 14.8128 52.7241 14.9071 52.0569 14.7759ZM51.8735 10.4962L53.781 10.8712L53.8908 10.3058C53.9609 9.94451 54.0008 9.63437 54.0103 9.37535C54.0214 9.10848 53.9732 8.89517 53.8657 8.73543C53.7676 8.56938 53.5772 8.45858 53.2946 8.40302C53.0591 8.35672 52.8569 8.36996 52.6879 8.44273C52.5268 8.51704 52.3889 8.68153 52.2742 8.9362C52.1611 9.18301 52.0573 9.54987 51.9627 10.0368L51.8735 10.4962Z" fill="white"/>
<path d="M60.7754 17.8542C60.2537 17.5744 59.9814 17.1741 59.9586 16.6535C59.9427 16.1366 60.1783 15.4187 60.6653 14.4998L61.2666 13.3652C61.5513 12.828 61.8354 12.3858 62.119 12.0386C62.4026 11.6915 62.7028 11.4667 63.0196 11.3643C63.3472 11.2586 63.7049 11.3098 64.0926 11.5178C64.3323 11.6463 64.5103 11.8145 64.6266 12.0221C64.7537 12.2265 64.8416 12.4279 64.8902 12.6265L66.4242 9.73189L67.1962 10.146L62.6448 18.7345L61.8728 18.3204L62.1032 17.8857C61.9122 17.9557 61.6986 18 61.4624 18.0185C61.237 18.0338 61.008 17.979 60.7754 17.8542ZM61.2599 17.3244C61.4291 17.4151 61.6083 17.4613 61.7976 17.463C61.9939 17.4684 62.1819 17.4468 62.3617 17.3979L64.6205 13.1355C64.5672 12.9798 64.4874 12.8144 64.381 12.6393C64.2783 12.4572 64.1318 12.315 63.9415 12.2129C63.6031 12.0314 63.297 12.0623 63.0231 12.3058C62.76 12.5459 62.4768 12.9523 62.1734 13.5249L61.4035 14.9775C61.1863 15.3875 61.0239 15.7452 60.9163 16.0507C60.8158 16.3599 60.788 16.6173 60.833 16.823C60.8849 17.0324 61.0273 17.1996 61.2599 17.3244Z" fill="white"/>
<path d="M67.4571 22.4173L72.2051 17.3612L72.84 17.9647L68.092 23.0208L67.4571 22.4173ZM72.8623 16.6614L73.6755 15.7954L74.3104 16.3989L73.4972 17.2649L72.8623 16.6614Z" fill="white"/>
<path d="M73.1775 29.5088C72.9994 29.2239 72.9157 28.9692 72.9263 28.7447C72.948 28.5227 73.0344 28.3213 73.1855 28.1405C73.3476 27.9622 73.5537 27.7939 73.8039 27.6356L77.9614 25.0048L77.5098 24.2823L77.9965 23.9743L78.4481 24.6968L80.2633 23.5482L80.7276 24.291L78.9125 25.4396L79.5231 26.4165L79.0364 26.7245L78.4257 25.7476L74.3392 28.3335C74.0552 28.5132 73.8715 28.672 73.788 28.8101C73.7155 28.9506 73.7471 29.1295 73.8828 29.3465C73.9209 29.4076 73.9667 29.4733 74.0201 29.5436C74.0845 29.6165 74.1447 29.6825 74.2006 29.7418L73.6328 30.1012C73.5489 30.0122 73.4696 29.9156 73.395 29.8114C73.3136 29.7114 73.2412 29.6105 73.1775 29.5088Z" fill="white"/>
<path d="M76.4555 36.8842C76.3788 36.6149 76.3772 36.3614 76.4508 36.1237C76.5321 35.8837 76.6678 35.6738 76.8578 35.4941C77.0577 35.3198 77.2921 35.1939 77.5611 35.1162C77.8993 35.0186 78.2007 34.9816 78.4653 35.0051C78.7321 35.0363 78.9873 35.1292 79.231 35.2837C79.4846 35.4436 79.7481 35.6673 80.0214 35.9548C80.3046 36.2478 80.6278 36.6083 80.9911 37.0363L81.4638 36.8999C81.8712 36.7823 82.1825 36.6633 82.3977 36.5429C82.6228 36.4279 82.7678 36.2945 82.8326 36.1425C82.8996 35.9983 82.9024 35.8185 82.841 35.6031C82.7905 35.4261 82.711 35.2784 82.6023 35.1599C82.4936 35.0414 82.3427 34.9642 82.1495 34.9284C81.9639 34.8903 81.7251 34.9135 81.433 34.9978L81.2024 35.0643L80.9771 34.2301C81.6556 34.0426 82.1958 34.0407 82.5976 34.2245C83.0093 34.4137 83.3062 34.8276 83.4883 35.4662C83.6594 36.0663 83.5983 36.5377 83.3051 36.8805C83.0217 37.2287 82.5034 37.5115 81.7501 37.729L78.5104 38.6641C78.3951 38.6974 78.2463 38.7445 78.064 38.8054C77.8895 38.8642 77.7226 38.9207 77.5633 38.975C77.4041 39.0292 77.2833 39.0724 77.201 39.1045L76.9871 38.3544C77.1287 38.2969 77.2836 38.2272 77.4516 38.1454C77.6273 38.0614 77.7678 38 77.8732 37.9612C77.5779 37.9466 77.2925 37.85 77.0169 37.6714C76.7436 37.5005 76.5565 37.2381 76.4555 36.8842ZM77.246 36.9433C77.2943 37.1125 77.3805 37.2542 77.5045 37.3683C77.6285 37.4823 77.7635 37.5766 77.9096 37.651C78.0632 37.7232 78.2104 37.7723 78.3509 37.7984L80.4262 37.1994C80.1627 36.9174 79.9278 36.6771 79.7215 36.4785C79.5173 36.2877 79.3291 36.138 79.1567 36.0295C78.9844 35.9211 78.8038 35.8566 78.6149 35.8362C78.4338 35.8136 78.2318 35.8344 78.0089 35.8987C77.6553 36.0008 77.4236 36.151 77.3137 36.3492C77.2116 36.5452 77.189 36.7432 77.246 36.9433Z" fill="white"/>
<path d="M77.8525 46.7872C77.8619 46.2433 77.9889 45.8415 78.2335 45.5817C78.478 45.322 78.805 45.1517 79.2145 45.0709C79.6318 44.9982 80.1005 44.9665 80.6204 44.9756L82.2401 45.0041C82.88 45.0154 83.403 45.0766 83.8092 45.1877C84.2233 45.299 84.5281 45.4884 84.7234 45.7559C84.9187 46.0314 85.012 46.4171 85.0034 46.913C84.9949 47.4009 84.8964 47.7713 84.708 48.024C84.5196 48.2767 84.2566 48.4441 83.9192 48.5262C83.5817 48.6083 83.193 48.6454 82.7531 48.6377L82.4171 48.6318L82.4313 47.8159L82.7672 47.8218C83.1752 47.829 83.4917 47.8026 83.7168 47.7425C83.9417 47.6905 84.0994 47.5932 84.1899 47.4508C84.2883 47.3165 84.3394 47.1334 84.3435 46.9014C84.3482 46.6294 84.2878 46.4204 84.1623 46.2741C84.0369 46.1279 83.8266 46.0282 83.5314 45.975C83.2443 45.9219 82.8568 45.8911 82.3689 45.8825L80.4252 45.8483C79.7293 45.8361 79.2362 45.8954 78.9459 46.0263C78.6635 46.1574 78.519 46.4189 78.5122 46.8108C78.5074 47.0828 78.5639 47.2878 78.6815 47.4259C78.8071 47.5641 78.9936 47.6554 79.2408 47.6998C79.4881 47.7441 79.7957 47.7695 80.1636 47.776L80.5476 47.7828L80.5334 48.5986L80.1975 48.5927C79.7335 48.5846 79.3224 48.5333 78.9639 48.439C78.6134 48.3528 78.3363 48.1799 78.1328 47.9203C77.9373 47.6608 77.8439 47.2831 77.8525 46.7872Z" fill="white"/>
<path d="M76.3285 56.1563C76.4614 55.7452 76.6507 55.4326 76.8965 55.2184C77.1474 55.0143 77.4838 54.9097 77.9058 54.9046C78.3254 54.9072 78.8507 55.0117 79.4818 55.2182L81.1469 55.7629C81.8008 55.9768 82.2894 56.2082 82.6125 56.457C82.9433 56.7083 83.1416 56.992 83.2076 57.3082C83.2812 57.6268 83.2528 57.9879 83.1224 58.3914C82.9723 58.8557 82.7591 59.1774 82.4827 59.3563C82.2063 59.5352 81.8518 59.6044 81.4193 59.5639C80.9919 59.5336 80.4665 59.4164 79.843 59.2124L79.2499 59.0184L80.1134 56.3465L78.9615 55.9696C78.5357 55.8304 78.1875 55.7501 77.9169 55.7289C77.6514 55.7178 77.4434 55.7634 77.2926 55.8656C77.1394 55.9754 77.0272 56.1407 76.9558 56.3615C76.9017 56.5289 76.8829 56.6911 76.8995 56.8481C76.9236 57.0075 77.0146 57.1551 77.1725 57.2909C77.3355 57.4368 77.5881 57.5657 77.9303 57.6777L78.3865 57.8269L78.1245 58.6376L77.7595 58.5182C77.1589 58.3217 76.7166 58.0382 76.4329 57.6676C76.1542 57.3071 76.1194 56.8033 76.3285 56.1563ZM80.5924 56.5032L79.9946 58.353L80.5421 58.5321C80.8919 58.6465 81.1945 58.7245 81.4502 58.766C81.7134 58.81 81.9305 58.7885 82.1016 58.7013C82.2778 58.6243 82.4102 58.4488 82.4988 58.1747C82.5726 57.9464 82.5834 57.7437 82.5313 57.5667C82.4768 57.3974 82.3301 57.24 82.0912 57.0945C81.86 56.9515 81.5087 56.8029 81.0372 56.6487L80.5924 56.5032Z" fill="white"/>
<line y1="-1.5" x2="13.9352" y2="-1.5" transform="matrix(0.631673 -0.775235 0.889449 0.457035 46 53.9697)" stroke="white" stroke-width="3"/>
<line y1="-1.5" x2="13.9352" y2="-1.5" transform="matrix(0.631673 0.775235 0.889449 -0.457035 46 32.3638)" stroke="white" stroke-width="3"/>
</svg>
