<svg width="92" height="66" viewBox="0 0 92 66" fill="none" xmlns="http://www.w3.org/2000/svg">
<circle cx="23" cy="23" r="21.5" transform="matrix(-1 0 0 1 69 20)" stroke="white" stroke-width="3"/>
<path d="M14.3548 38.0968C14.2568 38.5585 14.0813 38.9037 13.8283 39.1323C13.5692 39.3517 13.2393 39.4802 12.8389 39.5179C12.4305 39.5541 11.9513 39.5198 11.4012 39.415L9.5151 39.0558C8.96499 38.951 8.51296 38.8079 8.159 38.6265C7.79719 38.4436 7.54546 38.2043 7.40382 37.9086C7.25599 37.6036 7.23109 37.2203 7.32912 36.7586C7.43047 36.2812 7.61073 35.9329 7.86989 35.7136C8.12119 35.4927 8.45101 35.3642 8.85934 35.328C9.25982 35.2903 9.73512 35.3238 10.2852 35.4286L12.1713 35.7879C12.7214 35.8927 13.1774 36.0365 13.5392 36.2194C13.8932 36.4008 14.1449 36.6401 14.2944 36.9373C14.436 37.2329 14.4562 37.6195 14.3548 38.0968ZM13.7065 37.9733C13.7696 37.6759 13.7367 37.4458 13.6078 37.2828C13.4805 37.112 13.2787 36.984 13.0025 36.8988C12.7184 36.8121 12.3955 36.7344 12.034 36.6655L10.0536 36.2883C9.68428 36.2179 9.35875 36.1722 9.07705 36.1511C8.78749 36.1285 8.54917 36.1727 8.36209 36.2836C8.16881 36.3852 8.0406 36.5847 7.97746 36.8821C7.91432 37.1795 7.95115 37.4104 8.08793 37.5748C8.21686 37.7378 8.41946 37.8619 8.69573 37.9471C8.96414 38.0308 9.28302 38.1078 9.65238 38.1782L11.6328 38.5554C11.9943 38.6242 12.3237 38.6707 12.6212 38.6948C12.9107 38.7174 13.1482 38.6771 13.3336 38.574C13.519 38.4709 13.6433 38.2707 13.7065 37.9733Z" fill="white"/>
<path d="M21.6082 24.121L16.7445 19.1761L17.3563 18.6362L17.8528 19.1409C17.836 18.7935 17.8849 18.4787 17.9995 18.1965C18.1085 17.9086 18.274 17.6667 18.4959 17.4708C18.6759 17.312 18.8857 17.2121 19.1254 17.171C19.3712 17.1247 19.6476 17.195 19.9548 17.382C19.9272 17.0122 19.9681 16.6779 20.0775 16.3789C20.1868 16.08 20.3615 15.8247 20.6014 15.613C20.7514 15.4807 20.926 15.3905 21.1253 15.3425C21.3306 15.2892 21.5566 15.3082 21.8033 15.3995C22.0499 15.4908 22.3135 15.679 22.594 15.9642L26.4311 19.8654L25.8192 20.4053L21.999 16.5212C21.7129 16.2303 21.4739 16.0843 21.2822 16.083C21.0909 16.0707 20.9202 16.1307 20.7702 16.2631C20.6023 16.4113 20.4792 16.6051 20.401 16.8446C20.3228 17.084 20.2872 17.3498 20.2943 17.6418C20.3284 17.665 20.3622 17.6937 20.3959 17.7279C20.4299 17.7512 20.4638 17.7799 20.4975 17.8141L24.3346 21.7153L23.7137 22.2631L19.8934 18.3791C19.6073 18.0882 19.3684 17.9421 19.1767 17.9408C18.9853 17.9286 18.8147 17.9886 18.6647 18.1209C18.5027 18.2638 18.3827 18.455 18.3044 18.6945C18.2262 18.9339 18.1879 19.1968 18.1894 19.4831L22.22 23.5811L21.6082 24.121Z" fill="white"/>
<path d="M33.9889 16.3093C33.5853 16.4633 33.2198 16.5129 32.8925 16.4581C32.5695 16.3931 32.2661 16.2008 31.9825 15.8812C31.7064 15.5588 31.4383 15.0921 31.1784 14.481L30.4927 12.8688C30.2234 12.2357 30.0771 11.7182 30.0539 11.3164C30.0275 10.9072 30.1138 10.579 30.3128 10.332C30.5086 10.0776 30.8046 9.87477 31.2008 9.72361C31.6567 9.54963 32.045 9.51272 32.3656 9.61285C32.6862 9.71299 32.9743 9.94104 33.2299 10.297C33.4899 10.6427 33.7483 11.1174 34.0051 11.7211L34.2493 12.2953L31.6258 13.2964L32.1002 14.4117C32.2756 14.8239 32.4448 15.1401 32.6079 15.3602C32.7754 15.5701 32.9483 15.701 33.1267 15.7527C33.3125 15.8016 33.5139 15.7846 33.7306 15.7019C33.895 15.6392 34.032 15.5527 34.1415 15.4425C34.2478 15.3249 34.3008 15.1635 34.3004 14.9583C34.3043 14.7429 34.2359 14.4695 34.095 14.1382L33.9071 13.6965L34.7031 13.3928L34.8534 13.7461C35.1008 14.3277 35.1763 14.8423 35.0799 15.2897C34.9879 15.727 34.6243 16.0668 33.9889 16.3093ZM31.4285 12.8326L33.2448 12.1395L33.0194 11.6095C32.8753 11.2708 32.7345 10.9909 32.5969 10.7695C32.4562 10.5409 32.2957 10.3882 32.1154 10.3115C31.9395 10.2247 31.717 10.2326 31.4479 10.3352C31.2237 10.4208 31.0609 10.5385 30.9596 10.6884C30.8658 10.8355 30.8422 11.0455 30.8888 11.3186C30.9324 11.5844 31.0512 11.9455 31.2454 12.4019L31.4285 12.8326Z" fill="white"/>
<path d="M43.5557 14.2614C42.9648 14.2972 42.5225 14.0996 42.2288 13.6685C41.9431 13.237 41.7653 12.5024 41.6952 11.4648L41.6088 10.1837C41.5678 9.57708 41.5765 9.05162 41.6347 8.6073C41.6929 8.16298 41.8297 7.81408 42.0451 7.5606C42.268 7.29866 42.599 7.1544 43.0382 7.12781C43.3097 7.11138 43.5496 7.16097 43.7579 7.27659C43.9736 7.38375 44.1544 7.50905 44.3004 7.65249L44.0798 4.38392L44.9542 4.33098L45.6087 14.0289L44.7343 14.0819L44.7011 13.591C44.5756 13.7509 44.4174 13.9007 44.2263 14.0405C44.0428 14.1718 43.8192 14.2455 43.5557 14.2614ZM43.6885 13.5561C43.8802 13.5445 44.0569 13.4897 44.2186 13.3918C44.3884 13.2933 44.5368 13.1762 44.664 13.0402L44.3392 8.22718C44.2119 8.12268 44.0569 8.02387 43.8742 7.93074C43.691 7.82963 43.4915 7.78561 43.2759 7.79866C42.8926 7.82186 42.6487 8.00894 42.5441 8.3599C42.4469 8.70238 42.4202 9.19689 42.4638 9.84342L42.5745 11.4837C42.6057 11.9466 42.6561 12.3363 42.7255 12.6527C42.803 12.9686 42.915 13.2022 43.0615 13.3536C43.216 13.5046 43.425 13.5721 43.6885 13.5561Z" fill="white"/>
<path d="M52.2123 14.6045L53.8301 7.85981L54.6865 8.0441L53.0687 14.7888L52.2123 14.6045ZM54.0541 6.92629L54.3312 5.77106L55.1876 5.95535L54.9105 7.11058L54.0541 6.92629Z" fill="white"/>
<path d="M61.2497 17.6789C60.9505 17.526 60.7506 17.3521 60.6501 17.1571C60.5607 16.9589 60.5394 16.7461 60.5861 16.5187C60.6439 16.2879 60.7461 16.044 60.8926 15.7868L63.3274 11.5115L62.5687 11.1238L62.8537 10.6233L63.6124 11.011L64.6754 9.14443L65.4555 9.54298L64.3925 11.4095L65.4184 11.9336L65.1333 12.4342L64.1075 11.91L61.7142 16.1123C61.5479 16.4043 61.4612 16.6292 61.4541 16.7871C61.458 16.9417 61.574 17.0772 61.8019 17.1937C61.866 17.2264 61.9393 17.2594 62.0216 17.2924C62.115 17.3222 62.2013 17.3484 62.2804 17.3708L61.9479 17.9548C61.8291 17.921 61.7108 17.8785 61.5929 17.8272C61.471 17.7829 61.3566 17.7335 61.2497 17.6789Z" fill="white"/>
<path d="M68.3371 22.415C68.1362 22.22 68.0111 22.0039 67.9618 21.7667C67.9184 21.524 67.9388 21.2822 68.0231 21.0412C68.1191 20.8003 68.2699 20.5849 68.4755 20.3949C68.7341 20.156 68.9889 19.9859 69.2399 19.8845C69.4967 19.7886 69.7731 19.7508 70.0691 19.771C70.3767 19.7913 70.7243 19.8617 71.112 19.9821C71.5113 20.1026 71.9798 20.2625 72.5175 20.4617L72.8789 20.1279C73.1904 19.8401 73.4141 19.5954 73.5503 19.3935C73.698 19.1918 73.7641 19.011 73.7487 18.8513C73.739 18.6971 73.6538 18.542 73.4931 18.3859C73.3611 18.2578 73.217 18.1679 73.0608 18.1165C72.9046 18.065 72.7303 18.0683 72.5379 18.1265C72.3514 18.1792 72.1465 18.3087 71.9232 18.5149L71.7469 18.6778L71.1359 18.0677C71.6587 17.5956 72.1468 17.3458 72.6003 17.3185C73.0653 17.2913 73.536 17.5089 74.0123 17.9715C74.46 18.4062 74.6347 18.8376 74.5364 19.2655C74.4498 19.6935 74.1185 20.1736 73.5426 20.7056L71.0658 22.9937C70.9776 23.0751 70.8659 23.1838 70.7306 23.3196C70.6012 23.4501 70.4777 23.5751 70.36 23.6946C70.2423 23.8142 70.1541 23.9067 70.0952 23.9719L69.5356 23.4285C69.6358 23.3143 69.7419 23.1835 69.8541 23.0364C69.9722 22.8838 70.0695 22.7667 70.146 22.6852C69.8715 22.8083 69.5659 22.8567 69.2294 22.8305C68.8985 22.8099 68.6011 22.6714 68.3371 22.415ZM69.0816 22.1025C69.2079 22.2251 69.355 22.3067 69.5229 22.3473C69.6909 22.3879 69.8591 22.4065 70.0276 22.4031C70.2019 22.3943 70.3591 22.3687 70.499 22.3264L72.0856 20.8607C71.7096 20.7405 71.3797 20.6429 71.096 20.5678C70.818 20.4983 70.5746 20.4568 70.3657 20.4432C70.1567 20.4296 69.9618 20.4574 69.7808 20.5267C69.6058 20.5905 69.4331 20.7011 69.2627 20.8586C68.9923 21.1083 68.8558 21.3432 68.8531 21.5632C68.8562 21.7778 68.9324 21.9576 69.0816 22.1025Z" fill="white"/>
<path d="M74.8195 30.5472C74.5705 30.0635 74.4945 29.654 74.5915 29.3187C74.6885 28.9833 74.9021 28.691 75.2322 28.4416C75.5732 28.196 75.9798 27.9642 76.4518 27.7462L77.9225 27.0668C78.5035 26.7984 79.003 26.6249 79.421 26.5462C79.8463 26.4642 80.2101 26.4987 80.5125 26.6495C80.8186 26.8075 81.0852 27.1069 81.3123 27.5479C81.5357 27.9817 81.6224 28.3511 81.5726 28.6558C81.5228 28.9606 81.3655 29.2225 81.1007 29.4417C80.836 29.6608 80.5039 29.8626 80.1045 30.0472L79.7994 30.1881L79.4259 29.4626L79.7309 29.3217C80.1013 29.1506 80.3735 28.9896 80.5476 28.8388C80.7253 28.6951 80.8211 28.5407 80.8351 28.3758C80.86 28.2146 80.8193 28.0309 80.7131 27.8247C80.5886 27.5828 80.4353 27.4248 80.2531 27.3504C80.071 27.2761 79.8346 27.2796 79.5439 27.3611C79.2605 27.4392 78.8973 27.5806 78.4542 27.7852L76.6894 28.6005C76.0576 28.8923 75.6421 29.1591 75.4429 29.4008C75.251 29.6391 75.2447 29.9326 75.4242 30.2811C75.5487 30.5229 75.6966 30.6791 75.8678 30.7497C76.0462 30.8169 76.2572 30.8163 76.5006 30.7479C76.7441 30.6794 77.0329 30.568 77.3669 30.4137L77.7155 30.2527L78.0891 30.9782L77.7841 31.1191C77.3629 31.3136 76.9687 31.4473 76.6016 31.52C76.2454 31.5965 75.9143 31.5646 75.6083 31.4242C75.3095 31.2805 75.0466 30.9881 74.8195 30.5472Z" fill="white"/>
<path d="M77.7832 38.1977L84.6329 37.1071L84.786 37.9696L77.9363 39.0602L77.7832 38.1977ZM85.581 36.9562L86.7542 36.7694L86.9073 37.6319L85.7341 37.8187L85.581 36.9562Z" fill="white"/>
<line y1="-1.5" x2="13.9352" y2="-1.5" transform="matrix(-0.631673 -0.775235 -0.889449 0.457035 47 54)" stroke="white" stroke-width="3"/>
<line y1="-1.5" x2="13.9352" y2="-1.5" transform="matrix(-0.631673 0.775235 -0.889449 -0.457035 47 32.394)" stroke="white" stroke-width="3"/>
</svg>
