<svg width="90" height="91" viewBox="0 0 90 91" fill="none" xmlns="http://www.w3.org/2000/svg">
<g filter="url(#filter0_d_74_3)">
<path d="M78.8159 44.9879C78.8159 56.5138 73.5098 66.8016 65.2086 73.497C65.1022 71.9531 64.6309 70.1493 63.4602 69.6449C63.4602 69.6449 57.3179 65.1812 49.2447 63.194C46.6601 62.552 42.7375 48.7178 42.6463 47.7394C42.6463 47.7394 42.8592 31.8569 37.7051 31.7804C37.1426 31.7804 37.8419 28.7996 37.8419 28.7996C37.8419 28.7996 40.8827 28.7996 41.5821 27.9435C42.2966 27.0875 43.1328 21.7067 42.7832 20.1475C42.4335 18.5883 41.3692 14.1858 40.8067 14.2622C40.2441 14.3386 43.2089 12.7641 41.2932 11.4189C41.2932 11.4189 41.2172 12.3361 39.3927 12.6877C37.5531 13.0393 31.4868 14.3233 30.8634 15.745C30.2249 17.1666 31.1523 23.541 30.8634 25.2531C30.5746 26.9499 31.2892 27.2404 29.5255 28.9372C28.7957 29.6403 24.8732 34.8989 24.4475 37.5893C24.0218 40.2797 24.3107 45.3853 24.4475 47.235C24.5843 49.0846 25.9983 52.5547 26.2871 57.4463C26.5608 62.338 25.1469 60.794 25.5117 67.5965C25.8614 74.2614 27.1994 74.5518 27.3514 75.469C27.3514 75.469 25.7702 76.0499 24.5235 76.7989C13.5312 70.5162 6.11182 58.6234 6.11182 44.9879C6.11182 24.7945 22.395 8.42279 42.4791 8.42279C62.5632 8.42279 78.8463 24.7945 78.8463 44.9879H78.8159Z" fill="#BF5841"/>
<path d="M78.8159 44.9879C78.8159 56.5138 73.5098 66.8016 65.2086 73.497C65.1022 71.9531 64.6309 70.1493 63.4602 69.6449C63.4602 69.6449 57.3179 65.1812 49.2447 63.194C46.6601 62.552 42.7375 48.7178 42.6463 47.7394C42.6463 47.7394 42.8592 31.8569 37.7051 31.7804C37.1426 31.7804 37.8419 28.7996 37.8419 28.7996C37.8419 28.7996 40.8827 28.7996 41.5821 27.9435C42.2966 27.0875 43.1328 21.7067 42.7832 20.1475C42.4335 18.5883 41.3692 14.1858 40.8067 14.2622C40.2441 14.3386 43.2089 12.7641 41.2932 11.4189C41.2932 11.4189 41.2172 12.3361 39.3927 12.6877C37.5531 13.0393 31.4868 14.3233 30.8634 15.745C30.2249 17.1666 31.1523 23.541 30.8634 25.2531C30.5746 26.9499 31.2892 27.2404 29.5255 28.9372C28.7957 29.6403 24.8732 34.8989 24.4475 37.5893C24.0218 40.2797 24.3107 45.3853 24.4475 47.235C24.5843 49.0846 25.9983 52.5547 26.2871 57.4463C26.5608 62.338 25.1469 60.794 25.5117 67.5965C25.8614 74.2614 27.1994 74.5518 27.3514 75.469C27.3514 75.469 25.7702 76.0499 24.5235 76.7989C13.5312 70.5162 6.11182 58.6234 6.11182 44.9879C6.11182 24.7945 22.395 8.42279 42.4791 8.42279C62.5632 8.42279 78.8463 24.7945 78.8463 44.9879H78.8159Z" stroke="#BF5841" stroke-miterlimit="10"/>
</g>
<g filter="url(#filter1_d_74_3)">
<path d="M65.0415 75.8359C65.1935 75.5149 65.2999 74.5824 65.2239 73.5124C65.1175 71.9684 64.6462 70.1647 63.4755 69.6602C63.4755 69.6602 57.3332 65.1966 49.26 63.2093C46.6754 62.5673 42.7528 48.7331 42.6616 47.7548C42.6616 47.7548 42.8745 31.8722 37.7204 31.7958C37.1579 31.7958 37.8572 28.8149 37.8572 28.8149C37.8572 28.8149 40.898 28.8149 41.5974 27.9589C42.3119 27.1028 43.1481 21.722 42.7984 20.1628C42.4488 18.6036 41.3845 14.2011 40.822 14.2775C40.2594 14.354 43.2241 12.7795 41.3085 11.4343C41.3085 11.4343 41.2325 12.3514 39.408 12.703C37.5684 13.0546 31.5021 14.3387 30.8787 15.7603C30.2402 17.182 31.1676 23.5564 30.8787 25.2685C30.5899 26.9653 31.3044 27.2557 29.5408 28.9525C28.811 29.6557 24.8885 34.9142 24.4628 37.6046C24.0371 40.295 24.3259 45.4007 24.4628 47.2503C24.5996 49.1 26.0136 52.57 26.3024 57.4616C26.5761 62.3533 25.1621 60.8094 25.527 67.6118C25.8767 74.2767 27.2146 74.5671 27.3667 75.4843C27.3667 75.4843 25.7855 76.0652 24.5388 76.8142C23.4897 77.441 22.6839 78.1747 23.2769 78.7556C24.2043 79.6575 24.7516 79.8562 23.7634 79.8868C23.7634 79.8868 21.4372 81.0944 22.0758 82.5772C22.5775 83.739 25.9527 84.3504 27.017 84.1364C28.0813 83.9224 36.4737 83.418 36.6866 83.6473C36.8994 83.8613 45.7176 83.9224 49.2752 85.2829C50.5675 85.7721 62.2896 85.7568 64.0532 81.874C65.8929 77.8231 64.8134 76.3404 65.0567 75.8512L65.0415 75.8359ZM42.4488 62.4144C42.1599 62.6896 40.0466 62.4144 40.0466 62.4144C40.0466 62.4144 38.8455 55.612 39.7729 54.1904C39.7729 54.1904 42.7376 62.1393 42.4488 62.4144Z" fill="#0D4551"/>
<path d="M65.0415 75.8359C65.1935 75.5149 65.2999 74.5824 65.2239 73.5124C65.1175 71.9684 64.6462 70.1647 63.4755 69.6602C63.4755 69.6602 57.3332 65.1966 49.26 63.2093C46.6754 62.5673 42.7528 48.7331 42.6616 47.7548C42.6616 47.7548 42.8745 31.8722 37.7204 31.7958C37.1579 31.7958 37.8572 28.8149 37.8572 28.8149C37.8572 28.8149 40.898 28.8149 41.5974 27.9589C42.3119 27.1028 43.1481 21.722 42.7984 20.1628C42.4488 18.6036 41.3845 14.2011 40.822 14.2775C40.2594 14.354 43.2241 12.7795 41.3085 11.4343C41.3085 11.4343 41.2325 12.3514 39.408 12.703C37.5684 13.0546 31.5021 14.3387 30.8787 15.7603C30.2402 17.182 31.1676 23.5564 30.8787 25.2685C30.5899 26.9653 31.3044 27.2557 29.5408 28.9525C28.811 29.6557 24.8885 34.9142 24.4628 37.6046C24.0371 40.295 24.3259 45.4007 24.4628 47.2503C24.5996 49.1 26.0136 52.57 26.3024 57.4616C26.5761 62.3533 25.1621 60.8094 25.527 67.6118C25.8767 74.2767 27.2146 74.5671 27.3667 75.4843C27.3667 75.4843 25.7855 76.0652 24.5388 76.8142C23.4897 77.441 22.6839 78.1747 23.2769 78.7556C24.2043 79.6575 24.7516 79.8562 23.7634 79.8868C23.7634 79.8868 21.4372 81.0944 22.0758 82.5772C22.5775 83.739 25.9527 84.3504 27.017 84.1364C28.0813 83.9224 36.4737 83.418 36.6866 83.6473C36.8994 83.8613 45.7176 83.9224 49.2752 85.2829C50.5675 85.7721 62.2896 85.7568 64.0532 81.874C65.8929 77.8231 64.8134 76.3404 65.0567 75.8512L65.0415 75.8359ZM42.4488 62.4144C42.1599 62.6896 40.0466 62.4144 40.0466 62.4144C40.0466 62.4144 38.8455 55.612 39.7729 54.1904C39.7729 54.1904 42.7376 62.1393 42.4488 62.4144Z" stroke="#0D4551" stroke-miterlimit="10"/>
</g>
<g filter="url(#filter2_d_74_3)">
<path d="M42.4487 62.4144C42.1599 62.6896 40.0466 62.4144 40.0466 62.4144C40.0466 62.4144 38.8455 55.6119 39.7729 54.1903C39.7729 54.1903 42.7376 62.1392 42.4487 62.4144Z" fill="#BF5841"/>
<path d="M42.4487 62.4144C42.1599 62.6896 40.0466 62.4144 40.0466 62.4144C40.0466 62.4144 38.8455 55.6119 39.7729 54.1903C39.7729 54.1903 42.7376 62.1392 42.4487 62.4144Z" stroke="#0D4551" stroke-miterlimit="10"/>
</g>
<defs>
<filter id="filter0_d_74_3" x="-4.38818" y="-2.07721" width="93.7346" height="89.4556" filterUnits="userSpaceOnUse" color-interpolation-filters="sRGB">
<feFlood flood-opacity="0" result="BackgroundImageFix"/>
<feColorMatrix in="SourceAlpha" type="matrix" values="0 0 0 0 0 0 0 0 0 0 0 0 0 0 0 0 0 0 127 0" result="hardAlpha"/>
<feOffset/>
<feGaussianBlur stdDeviation="5"/>
<feColorMatrix type="matrix" values="0 0 0 0 0.0509804 0 0 0 0 0.270588 0 0 0 0 0.317647 0 0 0 0.8 0"/>
<feBlend mode="normal" in2="BackgroundImageFix" result="effect1_dropShadow_74_3"/>
<feBlend mode="normal" in="SourceGraphic" in2="effect1_dropShadow_74_3" result="shape"/>
</filter>
<filter id="filter1_d_74_3" x="11.4626" y="0.523987" width="64.2864" height="95.4791" filterUnits="userSpaceOnUse" color-interpolation-filters="sRGB">
<feFlood flood-opacity="0" result="BackgroundImageFix"/>
<feColorMatrix in="SourceAlpha" type="matrix" values="0 0 0 0 0 0 0 0 0 0 0 0 0 0 0 0 0 0 127 0" result="hardAlpha"/>
<feOffset/>
<feGaussianBlur stdDeviation="5"/>
<feColorMatrix type="matrix" values="0 0 0 0 0.0509804 0 0 0 0 0.270588 0 0 0 0 0.317647 0 0 0 0.8 0"/>
<feBlend mode="normal" in2="BackgroundImageFix" result="effect1_dropShadow_74_3"/>
<feBlend mode="normal" in="SourceGraphic" in2="effect1_dropShadow_74_3" result="shape"/>
</filter>
<filter id="filter2_d_74_3" x="28.9214" y="43.0876" width="24.0471" height="29.9491" filterUnits="userSpaceOnUse" color-interpolation-filters="sRGB">
<feFlood flood-opacity="0" result="BackgroundImageFix"/>
<feColorMatrix in="SourceAlpha" type="matrix" values="0 0 0 0 0 0 0 0 0 0 0 0 0 0 0 0 0 0 127 0" result="hardAlpha"/>
<feOffset/>
<feGaussianBlur stdDeviation="5"/>
<feColorMatrix type="matrix" values="0 0 0 0 0.0509804 0 0 0 0 0.270588 0 0 0 0 0.317647 0 0 0 0.8 0"/>
<feBlend mode="normal" in2="BackgroundImageFix" result="effect1_dropShadow_74_3"/>
<feBlend mode="normal" in="SourceGraphic" in2="effect1_dropShadow_74_3" result="shape"/>
</filter>
</defs>
</svg>
