<svg width="85" height="91" viewBox="0 0 85 91" fill="none" xmlns="http://www.w3.org/2000/svg">
<g filter="url(#filter0_d_74_2)">
<path d="M74.0184 41.9473C74.0184 52.6942 69.0353 62.2867 61.2394 68.5296C61.1394 67.09 60.6968 65.4081 59.5974 64.9378C59.5974 64.9378 53.8289 60.7758 46.2472 58.9229C43.8199 58.3243 40.1361 45.4251 40.0504 44.5129C40.0504 44.5129 40.2503 29.7037 35.41 29.6325C34.8817 29.6325 35.5385 26.8531 35.5385 26.8531C35.5385 26.8531 38.3941 26.8531 39.0509 26.0549C39.722 25.2567 40.5073 20.2396 40.1789 18.7858C39.8505 17.3319 38.851 13.227 38.3227 13.2983C37.7944 13.3695 40.5787 11.9014 38.7796 10.6472C38.7796 10.6472 38.7083 11.5023 36.9949 11.8302C35.2672 12.158 29.5702 13.3553 28.9848 14.6808C28.3851 16.0064 29.256 21.95 28.9848 23.5463C28.7135 25.1284 29.3845 25.3993 27.7283 26.9814C27.0429 27.637 23.3591 32.5401 22.9593 35.0487C22.5595 37.5573 22.8308 42.3179 22.9593 44.0425C23.0878 45.7671 24.4157 49.0026 24.687 53.5637C24.944 58.1247 23.6161 56.6851 23.9588 63.0278C24.2872 69.2422 25.5437 69.513 25.6865 70.3682C25.6865 70.3682 24.2015 70.9099 23.0307 71.6083C12.7075 65.7502 5.73975 54.6612 5.73975 41.9473C5.73975 23.1187 21.0318 7.85352 39.8934 7.85352C58.7549 7.85352 74.047 23.1187 74.047 41.9473H74.0184Z" stroke="#B8D3D9" stroke-miterlimit="10"/>
</g>
<g filter="url(#filter1_d_74_2)">
<path d="M61.0825 70.7103C61.2253 70.411 61.3252 69.5416 61.2538 68.5438C61.1539 67.1043 60.7113 65.4224 59.6118 64.952C59.6118 64.952 53.8434 60.7901 46.2617 58.9372C43.8344 58.3385 40.1506 45.4393 40.0649 44.5271C40.0649 44.5271 40.2648 29.718 35.4245 29.6468C34.8962 29.6468 35.553 26.8674 35.553 26.8674C35.553 26.8674 38.4086 26.8674 39.0654 26.0692C39.7365 25.271 40.5218 20.2539 40.1934 18.8C39.865 17.3462 38.8655 13.2413 38.3372 13.3125C37.8089 13.3838 40.5932 11.9157 38.7941 10.6614C38.7941 10.6614 38.7227 11.5166 37.0093 11.8445C35.2817 12.1723 29.5847 13.3696 28.9992 14.6951C28.3996 16.0207 29.2705 21.9643 28.9992 23.5606C28.728 25.1427 29.399 25.4135 27.7428 26.9957C27.0574 27.6513 23.3736 32.5544 22.9738 35.063C22.574 37.5716 22.8453 42.3321 22.9738 44.0568C23.1023 45.7814 24.4302 49.0169 24.7015 53.5779C24.9585 58.139 23.6306 56.6994 23.9733 63.0421C24.3017 69.2565 25.5582 69.5273 25.701 70.3825C25.701 70.3825 24.216 70.9241 23.0452 71.6226C22.06 72.2069 21.3033 72.8911 21.8601 73.4327C22.7311 74.2737 23.2451 74.459 22.317 74.4875C22.317 74.4875 20.1324 75.6135 20.7321 76.996C21.2033 78.0793 24.3731 78.6494 25.3726 78.4499C26.372 78.2503 34.2536 77.78 34.4535 77.9938C34.6534 78.1933 42.9348 78.2503 46.2759 79.5189C47.4896 79.975 58.4981 79.9607 60.1544 76.3404C61.8821 72.5633 60.8683 71.1807 61.0968 70.7246L61.0825 70.7103ZM39.865 58.196C39.5937 58.4526 37.609 58.196 37.609 58.196C37.609 58.196 36.4811 51.8533 37.352 50.5278C37.352 50.5278 40.1363 57.9394 39.865 58.196Z" fill="#B8D3D9"/>
<path d="M61.0825 70.7103C61.2253 70.411 61.3252 69.5416 61.2538 68.5438C61.1539 67.1043 60.7113 65.4224 59.6118 64.952C59.6118 64.952 53.8434 60.7901 46.2617 58.9372C43.8344 58.3385 40.1506 45.4393 40.0649 44.5271C40.0649 44.5271 40.2648 29.718 35.4245 29.6468C34.8962 29.6468 35.553 26.8674 35.553 26.8674C35.553 26.8674 38.4086 26.8674 39.0654 26.0692C39.7365 25.271 40.5218 20.2539 40.1934 18.8C39.865 17.3462 38.8655 13.2413 38.3372 13.3125C37.8089 13.3838 40.5932 11.9157 38.7941 10.6614C38.7941 10.6614 38.7227 11.5166 37.0093 11.8445C35.2817 12.1723 29.5847 13.3696 28.9992 14.6951C28.3996 16.0207 29.2705 21.9643 28.9992 23.5606C28.728 25.1427 29.399 25.4135 27.7428 26.9957C27.0574 27.6513 23.3736 32.5544 22.9738 35.063C22.574 37.5716 22.8453 42.3321 22.9738 44.0568C23.1023 45.7814 24.4302 49.0169 24.7015 53.5779C24.9585 58.139 23.6306 56.6994 23.9733 63.0421C24.3017 69.2565 25.5582 69.5273 25.701 70.3825C25.701 70.3825 24.216 70.9241 23.0452 71.6226C22.06 72.2069 21.3033 72.8911 21.8601 73.4327C22.7311 74.2737 23.2451 74.459 22.317 74.4875C22.317 74.4875 20.1324 75.6135 20.7321 76.996C21.2033 78.0793 24.3731 78.6494 25.3726 78.4499C26.372 78.2503 34.2536 77.78 34.4535 77.9938C34.6534 78.1933 42.9348 78.2503 46.2759 79.5189C47.4896 79.975 58.4981 79.9607 60.1544 76.3404C61.8821 72.5633 60.8683 71.1807 61.0968 70.7246L61.0825 70.7103ZM39.865 58.196C39.5937 58.4526 37.609 58.196 37.609 58.196C37.609 58.196 36.4811 51.8533 37.352 50.5278C37.352 50.5278 40.1363 57.9394 39.865 58.196Z" stroke="#B8D3D9" stroke-miterlimit="10"/>
</g>
<defs>
<filter id="filter0_d_74_2" x="-4.76025" y="-2.64648" width="89.3071" height="84.8332" filterUnits="userSpaceOnUse" color-interpolation-filters="sRGB">
<feFlood flood-opacity="0" result="BackgroundImageFix"/>
<feColorMatrix in="SourceAlpha" type="matrix" values="0 0 0 0 0 0 0 0 0 0 0 0 0 0 0 0 0 0 127 0" result="hardAlpha"/>
<feOffset/>
<feGaussianBlur stdDeviation="5"/>
<feColorMatrix type="matrix" values="0 0 0 0 0.0509804 0 0 0 0 0.270588 0 0 0 0 0.317647 0 0 0 0.8 0"/>
<feBlend mode="normal" in2="BackgroundImageFix" result="effect1_dropShadow_74_2"/>
<feBlend mode="normal" in="SourceGraphic" in2="effect1_dropShadow_74_2" result="shape"/>
</filter>
<filter id="filter1_d_74_2" x="10.1257" y="-0.245117" width="61.6519" height="90.4692" filterUnits="userSpaceOnUse" color-interpolation-filters="sRGB">
<feFlood flood-opacity="0" result="BackgroundImageFix"/>
<feColorMatrix in="SourceAlpha" type="matrix" values="0 0 0 0 0 0 0 0 0 0 0 0 0 0 0 0 0 0 127 0" result="hardAlpha"/>
<feOffset/>
<feGaussianBlur stdDeviation="5"/>
<feColorMatrix type="matrix" values="0 0 0 0 0.0509804 0 0 0 0 0.270588 0 0 0 0 0.317647 0 0 0 0.8 0"/>
<feBlend mode="normal" in2="BackgroundImageFix" result="effect1_dropShadow_74_2"/>
<feBlend mode="normal" in="SourceGraphic" in2="effect1_dropShadow_74_2" result="shape"/>
</filter>
</defs>
</svg>
